<svg width="600" height="400" viewBox="0 0 600 400" fill="none" xmlns="http://www.w3.org/2000/svg">
  <!-- Notification Icon -->
  <circle cx="100" cy="80" r="30" fill="#60A5FA"/>
  <path d="M90 80 L110 80 M100 70 L100 90" stroke="white" stroke-width="3"/>
  
  <!-- Chat Bubble 1 -->
  <rect x="50" y="120" width="150" height="80" rx="10" fill="#F3F4F6"/>
  <circle cx="80" cy="160" r="20" fill="#60A5FA"/>
  <path d="M70 160 L90 160 M80 150 L80 170" stroke="white" stroke-width="2"/>
  
  <!-- Phone Icon -->
  <rect x="70" y="220" width="40" height="60" rx="5" fill="#1F2937"/>
  <circle cx="90" cy="260" r="8" fill="#60A5FA"/>
  
  <!-- Main Screen -->
  <rect x="250" y="100" width="300" height="250" rx="10" fill="#F3F4F6"/>
  
  <!-- Person 1 -->
  <circle cx="400" cy="180" r="40" fill="#60A5FA"/>
  <path d="M380 200 C380 220 420 220 420 200" stroke="white" stroke-width="3"/>
  <circle cx="390" cy="170" r="5" fill="white"/>
  <circle cx="410" cy="170" r="5" fill="white"/>
  
  <!-- Person 2 -->
  <circle cx="300" cy="250" r="40" fill="#60A5FA"/>
  <path d="M280 270 C280 290 320 290 320 270" stroke="white" stroke-width="3"/>
  <circle cx="290" cy="240" r="5" fill="white"/>
  <circle cx="310" cy="240" r="5" fill="white"/>
  
  <!-- Checkmark -->
  <circle cx="500" cy="300" r="20" fill="#60A5FA"/>
  <path d="M490 300 L500 310 L510 290" stroke="white" stroke-width="3"/>
  
  <!-- Graph -->
  <rect x="50" y="300" width="150" height="80" rx="10" fill="#F3F4F6"/>
  <path d="M70 360 L90 330 L110 350 L130 320 L150 340" stroke="#60A5FA" stroke-width="2"/>
</svg>